<?xml version="1.0" encoding="UTF-8" standalone="no"?>
<svg
   xmlns:dc="http://purl.org/dc/elements/1.1/"
   xmlns:cc="http://creativecommons.org/ns#"
   xmlns:rdf="http://www.w3.org/1999/02/22-rdf-syntax-ns#"
   xmlns:svg="http://www.w3.org/2000/svg"
   xmlns="http://www.w3.org/2000/svg"
   xmlns:sodipodi="http://sodipodi.sourceforge.net/DTD/sodipodi-0.dtd"
   xmlns:inkscape="http://www.inkscape.org/namespaces/inkscape"
   viewBox="0 0 1 1"
   version="1.1"
   id="svg885"
   sodipodi:docname="node.svg"
   inkscape:version="1.0.2 (1.0.2+r75+1)">
  <metadata
     id="metadata891">
    <rdf:RDF>
      <cc:Work
         rdf:about="">
        <dc:format>image/svg+xml</dc:format>
        <dc:type
           rdf:resource="http://purl.org/dc/dcmitype/StillImage" />
      </cc:Work>
    </rdf:RDF>
  </metadata>
  <defs
     id="defs889" />
  <sodipodi:namedview
     pagecolor="#ffffff"
     bordercolor="#666666"
     borderopacity="1"
     objecttolerance="10"
     gridtolerance="10"
     guidetolerance="10"
     inkscape:pageopacity="0"
     inkscape:pageshadow="2"
     inkscape:window-width="1366"
     inkscape:window-height="703"
     id="namedview887"
     showgrid="false"
     inkscape:zoom="256"
     inkscape:cx="0.25195312"
     inkscape:cy="0.5"
     inkscape:window-x="0"
     inkscape:window-y="0"
     inkscape:window-maximized="1"
     inkscape:current-layer="svg885" />
  <g
     id="g883">
    <path
       style="fill:#000000;stroke:#808000;stroke-width:0;stroke-miterlimit:4;stroke-dasharray:none"
       d="m 0.3734705,0.50121194 c -0.106256,0 -0.191752,0.0856 -0.191752,0.19182 v 0.013 c 0,0.10626 0.0855,0.19183 0.191752,0.19183 h 0.253057 c 0.106257,0 0.191753,-0.0856 0.191753,-0.19183 v -0.013 c 0,-0.10625 -0.0855,-0.19182 -0.191753,-0.19182 h -0.01018 a 0.16861575,0.21725927 0 0 1 -0.116457,0.0601 0.16861575,0.21725927 0 0 1 -0.116311,-0.0601 z m 0.279783,-0.15339 a 0.15325691,0.19751661 0 0 1 -0.153257,0.19751 0.15325691,0.19751661 0 0 1 -0.153256,-0.19751 0.15325691,0.19751661 0 0 1 0.153256,-0.19752 0.15325691,0.19751661 0 0 1 0.153257,0.19752 z M 0.4975455,1.9399652e-6 A 0.50001194,0.50001159 0 0 0 5.0082494e-7,0.49996194 0.50001194,0.50001159 0 0 0 0.4999625,1.0000019 0.50001194,0.50001159 0 0 0 0.9999995,0.49996194 0.50001194,0.50001159 0 0 0 0.4999625,1.9399652e-6 a 0.50001194,0.50001159 0 0 0 -0.0024,0 z M 0.4992455,0.12496194 a 0.37503241,0.37503219 0 0 1 7.09e-4,0 0.37503241,0.37503219 0 0 1 0.375083,0.375 0.37503241,0.37503219 0 0 1 -0.375083,0.37509 0.37503241,0.37503219 0 0 1 -0.375008,-0.37509 0.37503241,0.37503219 0 0 1 0.374276,-0.375 z"
       id="path881" />
  </g>
</svg>
